                PublicHD - High-Definition Bittorrent Community
      
                            https://publichd.se/
    
              ----------------------------------------------------

General
Unique ID : 246589540354054599874766496245778055578 (0xB9836B0059046BB6A0D837756D0D819A)
Complete name : Game.of.Thrones.S03E05.Kissed.by.Fire.720p.HDTV.x264-CtrlHD.mkv
Format : Matroska
File size : 1.90 GiB
Duration : 59mn 28s
Overall bit rate : 4 573 Kbps
Encoded date : UTC 2013-04-29 07:13:37
Writing application : mkvmerge v6.1.0 ('Old Devil') built on Mar 2 2013 14:32:37
Writing library : libebml v1.3.0 + libmatroska v1.4.0

Video
ID : 1
Format : AVC
Format/Info : Advanced Video Codec
Format profile : High@L4.1
Format settings, CABAC : Yes
Format settings, ReFrames : 9 frames
Codec ID : V_MPEG4/ISO/AVC
Duration : 59mn 28s
Bit rate : 4 098 Kbps
Width : 1 280 pixels
Height : 714 pixels
Display aspect ratio : 16:9
Frame rate : 23.976 fps
Color space : YUV
Chroma subsampling : 4:2:0
Bit depth : 8 bits
Scan type : Progressive
Bits/(Pixel*Frame) : 0.187
Stream size : 1.70 GiB (90%)
Title : Game.of.Thrones.S03E05.Kissed.by.Fire.720p.HDTV.x264-CtrlHD
Writing library : x264 core 130 r2273 b3065e6
Encoding settings : cabac=1 / ref=9 / deblock=1:-3:-3 / analyse=0x3:0x133 / me=umh / subme=10 / psy=1 / psy_rd=1.10:0.00 / mixed_ref=1 / me_range=24 / chroma_me=1 / trellis=2 / 8x8dct=1 / cqm=0 / deadzone=21,11 / fast_pskip=0 / chroma_qp_offset=-2 / threads=18 / lookahead_threads=3 / sliced_threads=0 / nr=0 / decimate=0 / interlaced=0 / bluray_compat=0 / constrained_intra=0 / bframes=9 / b_pyramid=2 / b_adapt=2 / b_bias=0 / direct=3 / weightb=1 / open_gop=0 / weightp=2 / keyint=240 / keyint_min=23 / scenecut=40 / intra_refresh=0 / rc_lookahead=80 / rc=crf / mbtree=0 / crf=16.9 / qcomp=0.60 / qpmin=0 / qpmax=69 / qpstep=4 / vbv_maxrate=62500 / vbv_bufsize=78125 / crf_max=0.0 / nal_hrd=none / ip_ratio=1.40 / pb_ratio=1.30 / aq=2:0.80
Language : English

Audio
ID : 2
Format : AC-3
Format/Info : Audio Coding 3
Mode extension : CM (complete main)
Codec ID : A_AC3
Duration : 59mn 28s
Bit rate mode : Constant
Bit rate : 384 Kbps
Channel(s) : 2 channels
Channel positions : Front: L R
Sampling rate : 48.0 KHz
Bit depth : 16 bits
Compression mode : Lossy
Delay relative to video : 5ms
Stream size : 163 MiB (8%)
Title : English DD @ 384 Kbps
Language : English